<svg width="63" height="43" viewBox="0 0 63 43" fill="none" xmlns="http://www.w3.org/2000/svg">
<path fill-rule="evenodd" clip-rule="evenodd" d="M51.7988 3.56382C57.2932 5.84569 60.3799 8.94057 60.3799 12.1676H60.3198C60.3577 12.4134 60.3774 12.6652 60.3774 12.9217C60.3774 15.6287 58.1829 17.8232 55.4758 17.8232H6.68283C3.97576 17.8232 1.78125 15.6287 1.78125 12.9217C1.78125 12.6652 1.80094 12.4134 1.83889 12.1676H1.78482C1.78482 8.94057 4.87152 5.84569 10.3659 3.56381C15.8602 1.28194 23.3122 0 31.0824 0C38.8525 0 46.3045 1.28194 51.7988 3.56382Z" fill="#FFA723"/>
<path d="M1.7832 39.6584C1.7832 37.8127 3.27946 36.3164 5.12519 36.3164H57.0374C58.8831 36.3164 60.3793 37.8127 60.3793 39.6584V39.6584C60.3793 41.5041 58.8831 43.0004 57.0374 43.0004H5.12519C3.27946 43.0004 1.7832 41.5041 1.7832 39.6584V39.6584Z" fill="#FFA723"/>
<path d="M0 20.9426C0 19.0968 1.49626 17.6006 3.34199 17.6006H58.8189C60.6647 17.6006 62.1609 19.0968 62.1609 20.9426V20.9426C62.1609 22.7883 60.6647 24.2846 58.8189 24.2846H3.34199C1.49626 24.2846 0 22.7883 0 20.9426V20.9426Z" fill="#CD0909"/>
<path d="M0 33.0851C0 31.3009 1.44638 29.8545 3.23059 29.8545H58.9303C60.7145 29.8545 62.1609 31.3009 62.1609 33.0851V33.0851C62.1609 34.8693 60.7145 36.3157 58.9303 36.3157H3.23059C1.44638 36.3157 0 34.8693 0 33.0851V33.0851Z" fill="#401F01"/>
<path d="M0 27.0707C0 25.9017 0.94763 24.9541 2.11659 24.9541H60.0443C61.2133 24.9541 62.1609 25.9017 62.1609 27.0707V27.0707C62.1609 28.2397 61.2133 29.1873 60.0443 29.1873H2.11659C0.94763 29.1873 0 28.2397 0 27.0707V27.0707Z" fill="#007E23"/>
<ellipse cx="21.3889" cy="14.3696" rx="4.90158" ry="6.79537" fill="white"/>
<ellipse cx="31.4144" cy="14.3696" rx="5.12438" ry="6.79537" fill="white"/>
<ellipse cx="19.1606" cy="12.253" rx="2.22799" ry="3.11919" fill="black"/>
<ellipse cx="29.187" cy="12.253" rx="2.22799" ry="3.11919" fill="black"/>
<path d="M25.3994 22.6586C26.2772 24.6286 27.3679 25.4796 29.5344 25.6019C33.3525 25.8175 36.522 24.2467 38.9322 21.2629C40.0192 19.9173 41.8121 17.6781 41.0237 15.8184" stroke="black" stroke-width="3" stroke-linecap="round"/>
<path d="M40.5498 15.1504C41.1234 16.5738 42.3136 16.9328 43.8918 16.9328" stroke="black" stroke-width="3" stroke-linecap="round"/>
</svg>
