<svg width="36" height="36" viewBox="0 0 36 36" fill="none" xmlns="http://www.w3.org/2000/svg">
<path d="M22.05 9.4496C21.7752 9.73 21.6212 10.107 21.6212 10.4996C21.6212 10.8922 21.7752 11.2692 22.05 11.5496L24.45 13.9496C24.7304 14.2244 25.1074 14.3784 25.5 14.3784C25.8927 14.3784 26.2696 14.2244 26.55 13.9496L32.205 8.2946C32.9593 9.96139 33.1877 11.8185 32.8597 13.6183C32.5318 15.4182 31.6631 17.0754 30.3694 18.369C29.0758 19.6627 27.4186 20.5314 25.6187 20.8593C23.8189 21.1872 21.9618 20.9589 20.295 20.2046L9.93003 30.5696C9.33329 31.1663 8.52394 31.5016 7.68003 31.5016C6.83611 31.5016 6.02676 31.1663 5.43003 30.5696C4.83329 29.9729 4.49805 29.1635 4.49805 28.3196C4.49805 27.4757 4.83329 26.6663 5.43003 26.0696L15.795 15.7046C15.0408 14.0378 14.8124 12.1808 15.1403 10.3809C15.4683 8.58102 16.337 6.92384 17.6306 5.63019C18.9243 4.33653 20.5814 3.46786 22.3813 3.13992C24.1812 2.81198 26.0382 3.04035 27.705 3.7946L22.065 9.4346L22.05 9.4496Z" stroke="#7A6F5E" stroke-width="2" stroke-linecap="round" stroke-linejoin="round"/>
</svg>
