<svg width="36" height="36" viewBox="0 0 36 36" fill="none" xmlns="http://www.w3.org/2000/svg">
<path d="M30.3747 14.4004C31.51 15.0541 32.4304 16.024 33.0239 17.1919C33.6174 18.3598 33.8582 19.6751 33.717 20.9775C33.5758 22.2799 33.0587 23.513 32.2287 24.5265C31.3987 25.5401 30.2917 26.2902 29.0427 26.6854C28.6013 28.6886 27.489 30.481 25.8899 31.7658C24.2909 33.0506 22.301 33.7508 20.2497 33.7504H16.8747C16.5763 33.7504 16.2902 33.6319 16.0792 33.4209C15.8682 33.2099 15.7497 32.9238 15.7497 32.6254C15.7497 32.327 15.8682 32.0409 16.0792 31.8299C16.2902 31.6189 16.5763 31.5004 16.8747 31.5004H20.2497C21.6461 31.5008 23.0083 31.0683 24.1486 30.2624C25.289 29.4564 26.1514 28.3168 26.6172 27.0004H25.8747C25.5763 27.0004 25.2902 26.8819 25.0792 26.6709C24.8682 26.4599 24.7497 26.1738 24.7497 25.8754V14.6254C24.7497 14.327 24.8682 14.0409 25.0792 13.8299C25.2902 13.6189 25.5763 13.5004 25.8747 13.5004H26.9997C27.3642 13.5004 27.722 13.5296 28.073 13.5859C27.8197 11.0904 26.6491 8.77775 24.7881 7.09604C22.927 5.41432 20.508 4.48327 17.9997 4.48327C15.4914 4.48327 13.0724 5.41432 11.2113 7.09604C9.35029 8.77775 8.17974 11.0904 7.92646 13.5859C8.28138 13.529 8.64026 13.5005 8.99971 13.5004H10.1247C10.4231 13.5004 10.7092 13.6189 10.9202 13.8299C11.1312 14.0409 11.2497 14.327 11.2497 14.6254V25.8754C11.2497 26.1738 11.1312 26.4599 10.9202 26.6709C10.7092 26.8819 10.4231 27.0004 10.1247 27.0004H8.99971C7.51242 27.002 6.06622 26.5124 4.8858 25.6076C3.70539 24.7028 2.85686 23.4335 2.47204 21.9969C2.08722 20.5602 2.18767 19.0367 2.75778 17.663C3.32788 16.2893 4.33572 15.1424 5.62471 14.4004C5.62471 11.1183 6.9285 7.97071 9.24926 5.64994C11.57 3.32918 14.7177 2.02539 17.9997 2.02539C21.2818 2.02539 24.4294 3.32918 26.7502 5.64994C29.0709 7.97071 30.3747 11.1183 30.3747 14.4004ZM8.99971 15.7504C7.80623 15.7504 6.66164 16.2245 5.81773 17.0684C4.97381 17.9123 4.49971 19.0569 4.49971 20.2504C4.49971 21.4439 4.97381 22.5885 5.81773 23.4324C6.66164 24.2763 7.80623 24.7504 8.99971 24.7504V15.7504ZM31.4997 20.2504C31.4997 19.0569 31.0256 17.9123 30.1817 17.0684C29.3378 16.2245 28.1932 15.7504 26.9997 15.7504V24.7504C28.1932 24.7504 29.3378 24.2763 30.1817 23.4324C31.0256 22.5885 31.4997 21.4439 31.4997 20.2504Z" fill="#7A6F5E"/>
</svg>
