<svg width="36" height="36" viewBox="0 0 36 36" fill="none" xmlns="http://www.w3.org/2000/svg">
<path d="M18 2.25C9.30234 2.25 2.25 9.30234 2.25 18C2.25 26.6977 9.30234 33.75 18 33.75C26.6977 33.75 33.75 26.6977 33.75 18C33.75 9.30234 26.6977 2.25 18 2.25ZM18 31.0781C10.7789 31.0781 4.92188 25.2211 4.92188 18C4.92188 10.7789 10.7789 4.92188 18 4.92188C25.2211 4.92188 31.0781 10.7789 31.0781 18C31.0781 25.2211 25.2211 31.0781 18 31.0781Z" fill="#7A6F5E"/>
<path d="M21.9234 11.134C20.8687 10.2094 19.4766 9.70312 18 9.70312C16.5234 9.70312 15.1312 10.2129 14.0766 11.134C12.9797 12.0938 12.375 13.384 12.375 14.7656V15.0328C12.375 15.1875 12.5016 15.3141 12.6562 15.3141H14.3438C14.4984 15.3141 14.625 15.1875 14.625 15.0328V14.7656C14.625 13.2152 16.1402 11.9531 18 11.9531C19.8598 11.9531 21.375 13.2152 21.375 14.7656C21.375 15.859 20.6016 16.8609 19.4027 17.3215C18.6574 17.6063 18.0246 18.1055 17.5711 18.7594C17.1105 19.4273 16.8715 20.2289 16.8715 21.041V21.7969C16.8715 21.9516 16.998 22.0781 17.1527 22.0781H18.8402C18.9949 22.0781 19.1215 21.9516 19.1215 21.7969V20.9988C19.1233 20.6575 19.2279 20.3247 19.4217 20.0438C19.6155 19.7628 19.8894 19.5468 20.2078 19.4238C22.282 18.6258 23.6215 16.7977 23.6215 14.7656C23.625 13.384 23.0203 12.0938 21.9234 11.134ZM16.5938 25.7344C16.5938 26.1073 16.7419 26.465 17.0056 26.7287C17.2694 26.9925 17.627 27.1406 18 27.1406C18.373 27.1406 18.7306 26.9925 18.9944 26.7287C19.2581 26.465 19.4062 26.1073 19.4062 25.7344C19.4062 25.3614 19.2581 25.0037 18.9944 24.74C18.7306 24.4763 18.373 24.3281 18 24.3281C17.627 24.3281 17.2694 24.4763 17.0056 24.74C16.7419 25.0037 16.5938 25.3614 16.5938 25.7344Z" fill="#7A6F5E"/>
</svg>
